<mxfile host="app.diagrams.net" agent="Mozilla/5.0 (Windows NT 10.0; Win64; x64) AppleWebKit/537.36 (KHTML, like Gecko) Chrome/128.0.0.0 Safari/537.36" version="24.7.10">
  <diagram name="페이지-1" id="CwMKUaeTe422RupHbckm">
    <mxGraphModel dx="3118" dy="1301" grid="1" gridSize="10" guides="1" tooltips="1" connect="1" arrows="1" fold="1" page="1" pageScale="1" pageWidth="827" pageHeight="1169" math="0" shadow="0">
      <root>
        <mxCell id="0" />
        <mxCell id="1" parent="0" />
        <mxCell id="WlQB5wp_Slh41_nib7o7-66" value="" style="shape=cube;whiteSpace=wrap;html=1;boundedLbl=1;backgroundOutline=1;darkOpacity=0.05;darkOpacity2=0.1;shadow=0;" vertex="1" parent="1">
          <mxGeometry x="459.5" y="150" width="41" height="150" as="geometry" />
        </mxCell>
        <mxCell id="WlQB5wp_Slh41_nib7o7-61" value="" style="shape=cube;whiteSpace=wrap;html=1;boundedLbl=1;backgroundOutline=1;darkOpacity=0.05;darkOpacity2=0.1;shadow=0;" vertex="1" parent="1">
          <mxGeometry x="320" y="330" width="60" height="150" as="geometry" />
        </mxCell>
        <mxCell id="WlQB5wp_Slh41_nib7o7-57" value="" style="shape=cube;whiteSpace=wrap;html=1;boundedLbl=1;backgroundOutline=1;darkOpacity=0.05;darkOpacity2=0.1;shadow=0;" vertex="1" parent="1">
          <mxGeometry x="130" y="490" width="70" height="150" as="geometry" />
        </mxCell>
        <mxCell id="WlQB5wp_Slh41_nib7o7-51" value="" style="shape=cube;whiteSpace=wrap;html=1;boundedLbl=1;backgroundOutline=1;darkOpacity=0.05;darkOpacity2=0.1;shadow=0;" vertex="1" parent="1">
          <mxGeometry x="86" y="651" width="90" height="150" as="geometry" />
        </mxCell>
        <mxCell id="WlQB5wp_Slh41_nib7o7-50" value="" style="shape=cube;whiteSpace=wrap;html=1;boundedLbl=1;backgroundOutline=1;darkOpacity=0.05;darkOpacity2=0.1;shadow=0;" vertex="1" parent="1">
          <mxGeometry x="-20" y="650" width="90" height="150" as="geometry" />
        </mxCell>
        <mxCell id="WlQB5wp_Slh41_nib7o7-40" value="" style="shape=cube;whiteSpace=wrap;html=1;boundedLbl=1;backgroundOutline=1;darkOpacity=0.05;darkOpacity2=0.1;shadow=0;" vertex="1" parent="1">
          <mxGeometry x="-120" y="650" width="90" height="150" as="geometry" />
        </mxCell>
        <mxCell id="WlQB5wp_Slh41_nib7o7-16" value="" style="shape=cube;whiteSpace=wrap;html=1;boundedLbl=1;backgroundOutline=1;darkOpacity=0.05;darkOpacity2=0.1;shadow=0;fillColor=#dae8fc;strokeColor=#6c8ebf;" vertex="1" parent="1">
          <mxGeometry x="80" y="490" width="70" height="150" as="geometry" />
        </mxCell>
        <mxCell id="WlQB5wp_Slh41_nib7o7-39" value="" style="shape=cube;whiteSpace=wrap;html=1;boundedLbl=1;backgroundOutline=1;darkOpacity=0.05;darkOpacity2=0.1;shadow=0;fillColor=#dae8fc;strokeColor=#6c8ebf;" vertex="1" parent="1">
          <mxGeometry x="-190" y="650" width="90" height="150" as="geometry" />
        </mxCell>
        <mxCell id="WlQB5wp_Slh41_nib7o7-46" value="" style="shape=cube;whiteSpace=wrap;html=1;boundedLbl=1;backgroundOutline=1;darkOpacity=0.05;darkOpacity2=0.1;shadow=0;" vertex="1" parent="1">
          <mxGeometry x="-190" y="810" width="160" height="150" as="geometry" />
        </mxCell>
        <mxCell id="WlQB5wp_Slh41_nib7o7-58" value="" style="shape=cube;whiteSpace=wrap;html=1;boundedLbl=1;backgroundOutline=1;darkOpacity=0.05;darkOpacity2=0.1;shadow=0;" vertex="1" parent="1">
          <mxGeometry x="220" y="490" width="60" height="150" as="geometry" />
        </mxCell>
        <mxCell id="WlQB5wp_Slh41_nib7o7-59" value="" style="shape=cube;whiteSpace=wrap;html=1;boundedLbl=1;backgroundOutline=1;darkOpacity=0.05;darkOpacity2=0.1;shadow=0;" vertex="1" parent="1">
          <mxGeometry x="290" y="490" width="60" height="150" as="geometry" />
        </mxCell>
        <mxCell id="WlQB5wp_Slh41_nib7o7-1" value="" style="shape=cube;whiteSpace=wrap;html=1;boundedLbl=1;backgroundOutline=1;darkOpacity=0.05;darkOpacity2=0.1;shadow=0;" vertex="1" parent="1">
          <mxGeometry x="-740" y="170" width="30" height="150" as="geometry" />
        </mxCell>
        <mxCell id="WlQB5wp_Slh41_nib7o7-2" value="" style="shape=cube;whiteSpace=wrap;html=1;boundedLbl=1;backgroundOutline=1;darkOpacity=0.05;darkOpacity2=0.1;shadow=0;fillColor=#dae8fc;strokeColor=#6c8ebf;" vertex="1" parent="1">
          <mxGeometry x="440" y="150" width="41" height="150" as="geometry" />
        </mxCell>
        <mxCell id="WlQB5wp_Slh41_nib7o7-13" value="" style="shape=cube;whiteSpace=wrap;html=1;boundedLbl=1;backgroundOutline=1;darkOpacity=0.05;darkOpacity2=0.1;shadow=0;" vertex="1" parent="1">
          <mxGeometry x="-701" y="330" width="41" height="150" as="geometry" />
        </mxCell>
        <mxCell id="WlQB5wp_Slh41_nib7o7-14" value="" style="shape=cube;whiteSpace=wrap;html=1;boundedLbl=1;backgroundOutline=1;darkOpacity=0.05;darkOpacity2=0.1;shadow=0;fillColor=#dae8fc;strokeColor=#6c8ebf;" vertex="1" parent="1">
          <mxGeometry x="-650" y="330" width="60" height="150" as="geometry" />
        </mxCell>
        <mxCell id="WlQB5wp_Slh41_nib7o7-15" value="" style="shape=cube;whiteSpace=wrap;html=1;boundedLbl=1;backgroundOutline=1;darkOpacity=0.05;darkOpacity2=0.1;shadow=0;" vertex="1" parent="1">
          <mxGeometry x="-650" y="490" width="60" height="150" as="geometry" />
        </mxCell>
        <mxCell id="WlQB5wp_Slh41_nib7o7-17" value="" style="shape=cube;whiteSpace=wrap;html=1;boundedLbl=1;backgroundOutline=1;darkOpacity=0.05;darkOpacity2=0.1;shadow=0;" vertex="1" parent="1">
          <mxGeometry x="-560" y="650" width="70" height="150" as="geometry" />
        </mxCell>
        <mxCell id="WlQB5wp_Slh41_nib7o7-18" value="" style="shape=cube;whiteSpace=wrap;html=1;boundedLbl=1;backgroundOutline=1;darkOpacity=0.05;darkOpacity2=0.1;shadow=0;fillColor=#dae8fc;strokeColor=#6c8ebf;" vertex="1" parent="1">
          <mxGeometry x="-470" y="650" width="90" height="150" as="geometry" />
        </mxCell>
        <mxCell id="WlQB5wp_Slh41_nib7o7-36" value="" style="shape=cube;whiteSpace=wrap;html=1;boundedLbl=1;backgroundOutline=1;darkOpacity=0.05;darkOpacity2=0.1;shadow=0;" vertex="1" parent="1">
          <mxGeometry x="-458.5" y="810" width="90" height="150" as="geometry" />
        </mxCell>
        <mxCell id="WlQB5wp_Slh41_nib7o7-37" value="" style="shape=cube;whiteSpace=wrap;html=1;boundedLbl=1;backgroundOutline=1;darkOpacity=0.05;darkOpacity2=0.1;shadow=0;" vertex="1" parent="1">
          <mxGeometry x="-360" y="810" width="160" height="150" as="geometry" />
        </mxCell>
        <mxCell id="WlQB5wp_Slh41_nib7o7-56" value="" style="shape=cube;whiteSpace=wrap;html=1;boundedLbl=1;backgroundOutline=1;darkOpacity=0.05;darkOpacity2=0.1;shadow=0;fillColor=#dae8fc;strokeColor=#6c8ebf;" vertex="1" parent="1">
          <mxGeometry x="-580" y="490" width="70" height="150" as="geometry" />
        </mxCell>
        <mxCell id="WlQB5wp_Slh41_nib7o7-60" value="" style="shape=cube;whiteSpace=wrap;html=1;boundedLbl=1;backgroundOutline=1;darkOpacity=0.05;darkOpacity2=0.1;shadow=0;fillColor=#dae8fc;strokeColor=#6c8ebf;" vertex="1" parent="1">
          <mxGeometry x="280" y="330" width="60" height="150" as="geometry" />
        </mxCell>
        <mxCell id="WlQB5wp_Slh41_nib7o7-63" value="" style="shape=cube;whiteSpace=wrap;html=1;boundedLbl=1;backgroundOutline=1;darkOpacity=0.05;darkOpacity2=0.1;shadow=0;" vertex="1" parent="1">
          <mxGeometry x="390" y="330" width="60" height="150" as="geometry" />
        </mxCell>
        <mxCell id="WlQB5wp_Slh41_nib7o7-64" value="" style="shape=cube;whiteSpace=wrap;html=1;boundedLbl=1;backgroundOutline=1;darkOpacity=0.05;darkOpacity2=0.1;shadow=0;" vertex="1" parent="1">
          <mxGeometry x="450" y="330" width="60" height="150" as="geometry" />
        </mxCell>
        <mxCell id="WlQB5wp_Slh41_nib7o7-65" value="" style="shape=cube;whiteSpace=wrap;html=1;boundedLbl=1;backgroundOutline=1;darkOpacity=0.05;darkOpacity2=0.1;shadow=0;fillColor=#dae8fc;strokeColor=#6c8ebf;" vertex="1" parent="1">
          <mxGeometry x="-701" y="170" width="41" height="150" as="geometry" />
        </mxCell>
        <mxCell id="WlQB5wp_Slh41_nib7o7-67" value="" style="shape=cube;whiteSpace=wrap;html=1;boundedLbl=1;backgroundOutline=1;darkOpacity=0.05;darkOpacity2=0.1;shadow=0;" vertex="1" parent="1">
          <mxGeometry x="560" y="150" width="41" height="150" as="geometry" />
        </mxCell>
        <mxCell id="WlQB5wp_Slh41_nib7o7-68" value="" style="shape=cube;whiteSpace=wrap;html=1;boundedLbl=1;backgroundOutline=1;darkOpacity=0.05;darkOpacity2=0.1;shadow=0;" vertex="1" parent="1">
          <mxGeometry x="510" y="150" width="41" height="150" as="geometry" />
        </mxCell>
        <mxCell id="WlQB5wp_Slh41_nib7o7-69" value="" style="shape=flexArrow;endArrow=classic;html=1;rounded=0;fillColor=#b8b8b8;strokeColor=#b8b8b8;" edge="1" parent="1">
          <mxGeometry width="50" height="50" relative="1" as="geometry">
            <mxPoint x="-368.5" y="730" as="sourcePoint" />
            <mxPoint x="-210" y="730" as="targetPoint" />
          </mxGeometry>
        </mxCell>
        <mxCell id="WlQB5wp_Slh41_nib7o7-70" value="" style="shape=flexArrow;endArrow=classic;html=1;rounded=0;fillColor=#b8b8b8;strokeColor=#b8b8b8;" edge="1" parent="1">
          <mxGeometry width="50" height="50" relative="1" as="geometry">
            <mxPoint x="-493" y="583" as="sourcePoint" />
            <mxPoint x="50" y="580" as="targetPoint" />
          </mxGeometry>
        </mxCell>
        <mxCell id="WlQB5wp_Slh41_nib7o7-71" value="" style="shape=flexArrow;endArrow=classic;html=1;rounded=0;fillColor=#b8b8b8;strokeColor=#b8b8b8;" edge="1" parent="1">
          <mxGeometry width="50" height="50" relative="1" as="geometry">
            <mxPoint x="-563" y="413" as="sourcePoint" />
            <mxPoint x="260" y="410" as="targetPoint" />
          </mxGeometry>
        </mxCell>
        <mxCell id="WlQB5wp_Slh41_nib7o7-72" value="" style="shape=flexArrow;endArrow=classic;html=1;rounded=0;fillColor=#b8b8b8;strokeColor=#b8b8b8;" edge="1" parent="1">
          <mxGeometry width="50" height="50" relative="1" as="geometry">
            <mxPoint x="-640" y="246.5" as="sourcePoint" />
            <mxPoint x="410" y="240" as="targetPoint" />
          </mxGeometry>
        </mxCell>
      </root>
    </mxGraphModel>
  </diagram>
</mxfile>
